# AST/ASF file generated using VICON BodyLanguage
# -----------------------------------------------
:version 1.10
:name VICON
:units
  mass 1.0
  length 0.45
  angle deg
:documentation
   .ast/.asf automatically generated from VICON data using
   VICON BodyBuilder and BodyLanguage model FoxedUp or BRILLIANT.MOD
:root
   order TX TY TZ RX RY RZ
   axis XYZ
   position 0 0 0  
   orientation 0 0 0 
:bonedata
  begin
     id 1 
     name lhipjoint
     direction 0.566809 -0.746272 0.349008 
     length 2.40479 
     axis 0 0 0  XYZ
  end
  begin
     id 2 
     name lfemur
     direction 0.34202 -0.939693 0  
     length 7.1578  
     axis 0 0 20  XYZ
    dof rx ry rz
    limits (-160.0 20.0)
           (-70.0 70.0)
           (-60.0 70.0)
  end
  begin
     id 3 
     name ltibia
     direction 0.34202 -0.939693 0   
     length 7.49137   
     axis 0 0 20   XYZ
    dof rx
    limits (-10.0 170.0)
  end
  begin
     id 4 
     name lfoot
     direction 0.0665746 -0.182912 0.980873   
     length 2.36784   
     axis -90 7.62852e-016 20   XYZ
    dof rx rz
    limits (-45.0 90.0)
           (-70.0 20.0)
  end
  begin
     id 5 
     name ltoes
     direction 1.53601e-011 -4.22058e-011 1   
     length 1.18966   
     axis -90 7.62852e-016 20   XYZ
    dof rx
    limits (-90.0 20.0)
  end
  begin
     id 6 
     name rhipjoint
     direction -0.550236 -0.756381 0.353735   
     length 2.37265  
     axis 0 0 0  XYZ 
  end
  begin
     id 7 
     name rfemur
     direction -0.34202 -0.939693 0   
     length 7.43386   
     axis 0 0 -20   XYZ
    dof rx ry rz
    limits (-160.0 20.0)
           (-70.0 70.0)
           (-70.0 60.0)
  end
  begin
     id 8 
     name rtibia
     direction -0.34202 -0.939693 0   
     length 7.50908   
     axis 0 0 -20   XYZ
    dof rx
    limits (-10.0 170.0)
 end
 begin
     id 9 
     name rfoot
     direction -0.0683029 -0.187661 0.979856   
     length 2.41173  
     axis -90 -7.62852e-016 -20   XYZ
    dof rx rz
    limits (-45.0 90.0)
           (-20.0 70.0)
  end
  begin
     id 10 
     name rtoes
     direction -1.53528e-011 -4.21968e-011 1   
     length 1.21082   
     axis -90 -7.62852e-016 -20   XYZ
    dof rx
    limits (-90.0 20.0)
  end
  begin
     id 11 
     name lowerback
     direction 0.013823 0.995423 -0.0945635   
     length 2.04495   
     axis 0 0 0   XYZ
    dof rx ry rz
    limits (-20.0 45.0)
           (-30.0 30.0)
           (-30.0 30.0)
  end
  begin
     id 12 
     name upperback
     direction 0.0276657 0.9994 -0.020853   
     length 2.05008   
     axis 0 0 0   XYZ
    dof rx ry rz
    limits (-20.0 45.0)
           (-30.0 30.0)
           (-30.0 30.0)
  end
  begin
     id 13 
     name thorax
     direction 0.019782 0.999531 0.0233827   
     length 2.06488   
     axis 0 0 0   XYZ
    dof rx ry rz
    limits (-20.0 45.0)
           (-30.0 30.0)
           (-30.0 30.0)
  end
  begin
     id 14 
     name lowerneck
     direction -0.0308541 0.994709 0.0979874   
     length 1.75553   
     axis 0 0 0   XYZ
    dof rx ry rz
    limits (-20.0 45.0)
           (-30.0 30.0)
           (-30.0 30.0)
  end
  begin
     id 15 
     name upperneck
     direction 0.0588398 0.995804 -0.0700903   
     length 1.76878   
     axis 0 0 0   XYZ
    dof rx ry rz
    limits (-20.0 45.0)
           (-30.0 30.0)
           (-30.0 30.0)
  end
  begin
     id 16
     name head
     direction 0.0209966 0.999159 -0.0352225  
     length 1.77193  
     axis 0 0 0   XYZ
    dof rx ry rz
    limits (-20.0 45.0)
           (-30.0 30.0)
           (-30.0 30.0)
  end
  begin
     id 17 
     name lclavicle
     direction 0.938182 0.335073 -0.0868338  
     length 3.58396  
     axis 0 0 0   XYZ
    dof ry rz
    limits (-20.0 10.0)
           (0.0 20.0)
  end
  begin
     id 18 
     name lhumerus
     direction 1 -4.48971e-011 -1.26313e-017   
     length 4.983   
     axis 180 -30 -90   XYZ
    dof rx ry rz
    limits (-60.0 90.0)
           (-90.0 90.0)
           (-90.0 90.0)
  end
  begin
     id 19
     name lradius
     direction 1 -4.48948e-011 -5.89033e-027   
     length 3.48356   
     axis 180 -30 -90   XYZ
    dof rx
    limits (-10.0 170.0)
  end
  begin
     id 20
     name lwrist
     direction 1 -4.48977e-011 -1.48983e-026   
     length 1.74178   
     axis 9.0955e-015 90 90   XYZ
    dof ry
    limits (-180.0 0.0)
 end
  begin
     id 21 
     name lhand
     direction 1 -4.49046e-011 -2.98066e-026   
     length 0.715259   
     axis 1.90115e-014 90 90   XYZ
    dof rx rz
    limits (-90.0 90.0)
           (-45.0 45.0)
  end
  begin
     id 22 
     name lfingers
     direction 1 -4.48907e-011 -5.95731e-026   
     length 0.576661   
     axis 3.80223e-014 90 90   XYZ
    dof rx
    limits (0.0 90.0)
  end
  begin
     id 23
     name lthumb
     direction 0.707107 -6.34963e-011 0.707107   
     length 0.827973   
     axis -90 45 -3.84942e-014   XYZ
    dof rx rz
    limits (-45.0 45.0)
           (-45.0 45.0)
  end
  begin
     id 24 
     name rclavicle
     direction -0.909637 0.398485 -0.11735   
     length 3.44819  
     axis 0 0 0   XYZ 
    dof ry rz
    limits (-10.0 20.0)
           (-20.0 0.0)
  end
  begin
     id 25 
     name rhumerus
     direction -1 -4.48978e-011 -1.09333e-027  
     length 5.2419   
     axis 180 30 90   XYZ
    dof rx ry rz
    limits (-90.0 60.0)
           (-90.0 90.0)
           (-90.0 90.0)
  end
  begin
     id 26 
     name rradius
     direction -1 -4.48953e-011 -7.61841e-027   
     length 3.44417   
     axis 180 30 90   XYZ
    dof rx
    limits (-10.0 170.0)
  end
  begin
     id 27 
     name rwrist
     direction -1 -4.48977e-011 -1.48983e-026   
     length 1.72209   
     axis 9.0955e-015 -90 -90   XYZ
    dof ry
    limits (-180.0 0.0)
  end
  begin
     id 28
     name rhand
     direction -1 -4.49027e-011 -2.98038e-026   
     length 0.622529   
     axis 1.90115e-014 -90 -90   XYZ
    dof rx rz
    limits (-90.0 90.0)
           (-45.0 45.0)
  end
  begin
     id 29
     name rfingers
     direction -1 -4.48838e-011 -5.95531e-026   
     length 0.501899   
     axis 3.80223e-014 -90 -90   XYZ
    dof rx
    limits (0.0 90.0)
  end
  begin
     id 30
     name rthumb
     direction -0.707107 -6.34937e-011 0.707107   
     length 0.720629   
     axis -90 -45 3.84942e-014   XYZ
    dof rx rz
    limits (-45.0 45.0)
           (-45.0 45.0)
  end
:hierarchy
  begin
    root lhipjoint rhipjoint lowerback
    lhipjoint lfemur
    lfemur ltibia
    ltibia lfoot
    lfoot ltoes
    rhipjoint rfemur
    rfemur rtibia
    rtibia rfoot
    rfoot rtoes
    lowerback upperback
    upperback thorax
    thorax lowerneck lclavicle rclavicle
    lowerneck upperneck
    upperneck head
    lclavicle lhumerus
    lhumerus lradius
    lradius lwrist
    lwrist lhand lthumb
    lhand lfingers
    rclavicle rhumerus
    rhumerus rradius
    rradius rwrist
    rwrist rhand rthumb
    rhand rfingers
  end

#!OML:ASF F:\VICON\USERDATA\Patient Classification 1\PLAYGROUND\JustinFriday\JustinFriday.ASF
:FULLY-SPECIFIED
:DEGREES
135
root 11.4048 17.7839 16.2583 -115.529 -103.209 122.95
lowerback 4.92183 2.27234 8.71318
upperback 2.85326 3.21962 4.03677
thorax 0.461886 1.60996 -0.827315
lowerneck -6.64492 6.31175 -0.764579
upperneck 16.6725 9.0932 -3.58011
head 6.29109 3.99441 -0.343192
rclavicle 1.54058e-014 -9.14409e-015
rhumerus -27.7907 -9.49309 -75.881
rradius 22.7883
rwrist -13.7659
rhand -23.3539 -24.0072
rfingers 7.12502
rthumb 3.10136 -53.9644
lclavicle 1.54058e-014 -9.14409e-015
lhumerus -43.6456 31.3101 63.6413
lradius 22.4621
lwrist -4.29868
lhand -17.3704 -1.66171
lfingers 7.12502
lthumb 8.87792 28.1315
rfemur 5.31433 -0.904473 35.2632
rtibia 6.58128
rfoot -13.2266 -8.68651
rtoes 13.057
lfemur -38.1602 6.88362 -6.25431
ltibia 24.869
lfoot -14.6216 10.3095
ltoes 5.01179
136
root 11.3329 17.7856 16.2621 -112.459 -102.958 120.725
lowerback 4.01677 2.7235 8.12737
upperback 2.66814 3.71906 4.0532
thorax 0.770785 1.86291 -0.464607
lowerneck -6.52401 6.29153 -0.82543
upperneck 16.5608 9.05321 -3.50184
head 6.22739 3.98373 -0.318352
rclavicle -6.76862e-014 -4.45278e-014
rhumerus -27.6319 -11.7128 -74.9785
rradius 21.6059
rwrist -11.0029
rhand -22.6386 -23.307
rfingers 7.12502
rthumb 3.79213 -53.253
lclavicle -6.76862e-014 -4.45278e-014
lhumerus -43.6604 30.912 63.8246
lradius 22.7314
lwrist -4.01724
lhand -17.0171 -1.89746
lfingers 7.12502
lthumb 9.21886 27.881
rfemur 5.43849 0.128876 35.2206
rtibia 5.04215
rfoot -12.6938 -8.64938
rtoes 14.9286
lfemur -38.6538 5.7294 -5.32208
ltibia 24.2438
lfoot -15.7112 12.8931
ltoes 4.84691
137
root 11.261 17.7793 16.2828 -111.925 -102.975 120.395
lowerback 3.83061 2.97632 8.01045
upperback 2.63252 4.03965 3.94624
thorax 0.858181 2.02674 -0.507384
lowerneck -6.41255 6.23131 -0.902412
upperneck 16.405 8.93732 -3.27908
head 6.14249 3.94847 -0.252091
rclavicle 3.12092e-014 2.42517e-014
rhumerus -27.5413 -12.0808 -74.8558
rradius 20.9422
rwrist -10.9095
rhand -22.488 -23.4184
rfingers 7.12502
rthumb 3.93755 -53.3617
lclavicle 3.12092e-014 2.42517e-014
lhumerus -43.4591 30.216 64.0961
lradius 23.0969
lwrist -3.4635
lhand -16.7852 -2.47493
lfingers 7.12502
lthumb 9.44259 27.2935
rfemur 6.59851 0.500602 35.22
rtibia 2.77017
rfoot -11.8427 -8.70404
rtoes 16.1132
lfemur -38.6519 4.49499 -4.55999
ltibia 23.677
lfoot -16.6207 14.6669
ltoes 6.06913
138
root 11.1972 17.7714 16.318 -112.293 -103.596 121.017
lowerback 3.65156 3.03732 8.5899
upperback 2.54883 4.12105 3.90735
thorax 0.924639 2.07455 -0.855927
lowerneck -6.43569 6.22098 -0.672003
upperneck 16.3785 8.90162 -3.30609
head 6.14882 3.94469 -0.298924
rclavicle -2.20651e-014 -1.25234e-014
rhumerus -27.5787 -12.2898 -74.8619
rradius 20.6713
rwrist -11.2107
rhand -22.4218 -23.6569
rfingers 7.12502
rthumb 4.00145 -53.599
lclavicle -2.20651e-014 -1.25234e-014
lhumerus -43.3596 29.5156 64.3528
lradius 23.7195
lwrist -2.77796
lhand -16.8796 -3.02656
lfingers 7.12502
lthumb 9.35156 26.746
rfemur 7.68629 0.464558 35.7455
rtibia 0.436382
rfoot -10.6412 -9.06397
rtoes 14.7004
lfemur -38.9625 3.75307 -3.77594
ltibia 23.1094
lfoot -16.6311 15.689
ltoes 5.01525
139
root 11.1281 17.7725 16.3489 -112.472 -103.876 121.352
lowerback 3.56864 3.16698 8.69385
upperback 2.50386 4.29108 3.88387
thorax 0.947618 2.16097 -0.934925
lowerneck -6.58255 6.15264 -0.854601
upperneck 16.4854 8.76803 -2.85301
head 6.17621 3.90015 -0.132384
rclavicle 6.22196e-014 9.74045e-015
rhumerus -27.5011 -13.1752 -74.4985
rradius 19.7875
rwrist -10.4475
rhand -21.9549 -23.5787
rfingers 7.12502
rthumb 4.45228 -53.5119
lclavicle 6.22196e-014 9.74045e-015
lhumerus -43.2013 28.8004 64.7759
lradius 24.3319
lwrist -2.12
lhand -17.0515 -3.20888
lfingers 7.12502
lthumb 9.18569 26.5711
rfemur 7.98862 0.585905 35.9238
rtibia 6.36111e-015
rfoot -10.5415 -9.22975
rtoes 14.6265
lfemur -39.1556 3.53727 -3.49884
ltibia 22.7949
lfoot -16.274 16.6927
ltoes 1.91291
140
root 11.0491 17.7757 16.3809 -112.857 -103.709 121.655
lowerback 3.66972 3.33556 8.34138
upperback 2.52872 4.52213 3.78194
thorax 0.91377 2.2747 -0.856423
lowerneck -6.62295 6.07861 -0.881934
upperneck 16.7058 8.6491 -2.67759
head 6.24207 3.84702 -0.0772941
rclavicle -9.22361e-014 -3.89618e-014
rhumerus -27.7105 -13.52 -74.3757
rradius 19.4792
rwrist -9.66554
rhand -22.2701 -24.7495
rfingers 7.12502
rthumb 4.14797 -54.6888
lclavicle -9.22361e-014 -3.89618e-014
lhumerus -42.9602 28.0992 65.1991
lradius 24.7154
lwrist -1.57681
lhand -16.7709 -3.56918
lfingers 7.12502
lthumb 9.45645 26.1987
rfemur 8.38743 0.820549 35.6109
rtibia 4.77083e-014
rfoot -10.8867 -9.28596
rtoes 15.8887
lfemur -38.9547 2.93415 -3.42761
ltibia 22.6677
lfoot -16.6339 17.8331
ltoes 1.98243
141
root 10.9744 17.7576 16.4246 -113.615 -103.896 122.234
lowerback 3.90114 3.3591 8.47906
upperback 2.57592 4.57999 3.70881
thorax 0.855638 2.30484 -1.02016
lowerneck -6.42684 6.0501 -0.822764
upperneck 16.5358 8.59961 -2.72479
head 6.1584 3.83078 -0.114595
rclavicle 2.08724e-015 -1.49089e-014
rhumerus -27.9524 -13.0675 -74.6187
rradius 19.7472
rwrist -9.56646
rhand -22.8644 -26.1221
rfingers 7.12502
rthumb 3.57403 -56.0719
lclavicle 2.08724e-015 -1.49089e-014
lhumerus -42.8392 27.7132 65.3966
lradius 25.1922
lwrist -1.15408
lhand -16.3996 -3.9833
lfingers 7.12502
lthumb 9.81461 25.768
rfemur 8.87364 0.836184 35.6091
rtibia 3.18055e-015
rfoot -11.0526 -9.51922
rtoes 15.3086
lfemur -38.6987 2.05018 -3.02647
ltibia 22.5952
lfoot -18.3542 17.8287
ltoes 9.00598
142
root 10.8974 17.7428 16.4676 -113.81 -103.927 122.195
lowerback 4.21376 3.46047 8.54918
upperback 2.66604 4.74588 3.59467
thorax 0.804014 2.38959 -1.19487
lowerneck -6.26999 6.06363 -0.873905
upperneck 16.1738 8.59653 -2.62917
head 6.01009 3.84805 -0.0884855
rclavicle 2.68856e-014 1.33186e-014
rhumerus -27.6765 -14.1592 -74.2829
rradius 18.7203
rwrist -8.31972
rhand -22.3422 -25.2386
rfingers 7.12502
rthumb 4.07832 -55.1793
lclavicle 2.68856e-014 1.33186e-014
lhumerus -42.746 27.1426 65.7241
lradius 25.9363
lwrist -0.569565
lhand -16.355 -4.03078
lfingers 7.12502
lthumb 9.85767 25.7185
rfemur 9.44458 1.02857 35.5687
rtibia -1.27222e-014
rfoot -10.97 -9.78802
rtoes 13.1838
lfemur -38.3653 1.77422 -2.96142
ltibia 22.673
lfoot -18.5332 18.7264
ltoes 8.14886
143
root 10.8204 17.7465 16.4985 -112.449 -103.886 121.329
lowerback 3.80586 3.75705 8.3921
upperback 2.52387 5.1074 3.51435
thorax 0.906325 2.57209 -1.17391
lowerneck -6.18871 5.99882 -1.21781
upperneck 15.9469 8.48471 -2.25841
head 5.89172 3.81057 0.0658715
rclavicle -2.5345e-015 -8.74653e-015
rhumerus -27.8143 -14.7972 -74.0836
rradius 18.536
rwrist -7.99709
rhand -22.9598 -24.8493
rfingers 7.12502
rthumb 3.48189 -54.8006
lclavicle -2.5345e-015 -8.74653e-015
lhumerus -42.5541 26.2537 66.2666
lradius 26.5535
lwrist 0.0214773
lhand -16.3666 -3.78819
lfingers 7.12502
lthumb 9.84643 25.9616
rfemur 9.17932 1.62147 35.5759
rtibia -6.36111e-015
rfoot -10.7139 -10.1559
rtoes 11.452
lfemur -38.86 2.50355 -3.18732
ltibia 22.8455
lfoot -18.7368 19.1062
ltoes 8.17649
144
root 10.7472 17.7366 16.56 -116.634 -104.904 125.41
lowerback 4.09292 3.39292 9.07046
upperback 2.44941 4.67881 3.56462
thorax 0.687748 2.35449 -1.50844
lowerneck -6.27916 5.98243 -1.21706
upperneck 16.0723 8.47818 -2.31623
head 5.94952 3.79831 0.0527864
rclavicle 9.31306e-014 5.12864e-014
rhumerus -28.1247 -17.0783 -73.2614
rradius 18.2694
rwrist -5.86175
rhand -23.8154 -24.556
rfingers 7.12502
rthumb 2.65564 -54.5193
lclavicle 9.31306e-014 5.12864e-014
lhumerus -42.5188 25.6457 66.634
lradius 27.1543
lwrist 0.610278
lhand -16.0945 -3.79044
lfingers 7.12502
lthumb 10.109 25.9467
rfemur 9.44005 0.530503 35.9153
rtibia -3.18055e-014
rfoot -10.9475 -10.3883
rtoes 12.6868
lfemur -39.1754 1.47324 -3.06163
ltibia 23.086
lfoot -18.0738 19.9749
ltoes 6.4495
